{
    "asset" : {
        "generator" : "Khronos glTF Blender I/O v1.1.46",
        "version" : "2.0"
    },
    "scene" : 0,
    "scenes" : [
        {
            "name" : "Scene",
            "nodes" : [
                0,
                1,
                2,
                3,
                4,
                5,
                6,
                7,
                8,
                9,
                10
            ]
        }
    ],
    "nodes" : [
        {
            "name" : "Light",
            "rotation" : [
                0.16907575726509094,
                0.7558803558349609,
                -0.27217137813568115,
                0.570947527885437
            ],
            "scale" : [
                2.1010375022888184,
                1.0855833292007446,
                1.0721569061279297
            ],
            "translation" : [
                3.764793634414673,
                5.9832444190979,
                9.957098007202148
            ]
        },
        {
            "name" : "Camera",
            "rotation" : [
                0.483536034822464,
                0.33687159419059753,
                -0.20870360732078552,
                0.7804827094078064
            ],
            "translation" : [
                7.358891487121582,
                4.958309173583984,
                6.925790786743164
            ]
        },
        {
            "name" : "Empty",
            "rotation" : [
                0.7071068286895752,
                0,
                0,
                0.7071067094802856
            ],
            "scale" : [
                1.5965311527252197,
                1.5965311527252197,
                1.5965311527252197
            ],
            "translation" : [
                0.058790892362594604,
                0.41153618693351746,
                0
            ]
        },
        {
            "mesh" : 0,
            "name" : "head",
            "rotation" : [
                -0.036335814744234085,
                0,
                0,
                0.9993396401405334
            ],
            "scale" : [
                2.5022671222686768,
                2.4354047775268555,
                2.1776981353759766
            ],
            "translation" : [
                0.012066648341715336,
                0.01924123615026474,
                0.00400325795635581
            ]
        },
        {
            "mesh" : 1,
            "name" : "ear",
            "rotation" : [
                -0.036335814744234085,
                0,
                0,
                0.9993396401405334
            ],
            "translation" : [
                0,
                -0.00014555733650922775,
                0.0006996080046519637
            ]
        },
        {
            "mesh" : 2,
            "name" : "body",
            "scale" : [
                3.461416721343994,
                3.2157249450683594,
                3.8286550045013428
            ],
            "translation" : [
                -0.0007238583639264107,
                0.03456442058086395,
                -4.45656681060791
            ]
        },
        {
            "mesh" : 3,
            "name" : "suzu",
            "scale" : [
                0.25698256492614746,
                0.25698256492614746,
                0.25698256492614746
            ],
            "translation" : [
                0,
                -2.144731044769287,
                -1.432861566543579
            ]
        },
        {
            "mesh" : 4,
            "name" : "collar",
            "rotation" : [
                0.7118629217147827,
                0.0014254862908273935,
                0.0006733930204063654,
                0.7023166418075562
            ],
            "scale" : [
                2.128812789916992,
                0.09553886950016022,
                1.9643186330795288
            ],
            "translation" : [
                0.02101517654955387,
                -0.05627252906560898,
                -1.3915315866470337
            ]
        },
        {
            "mesh" : 5,
            "name" : "hand"
        },
        {
            "mesh" : 6,
            "name" : "leg",
            "scale" : [
                1,
                1,
                1.0404819250106812
            ],
            "translation" : [
                0,
                -0.016053635627031326,
                -1.3236939907073975
            ]
        },
        {
            "mesh" : 7,
            "name" : "tail",
            "scale" : [
                0.6360673308372498,
                0.6360673308372498,
                0.6360673308372498
            ],
            "translation" : [
                0.06345409154891968,
                1.4980769157409668,
                -8.144591331481934
            ]
        }
    ],
    "materials" : [
        {
            "doubleSided" : true,
            "emissiveFactor" : [
                0,
                0,
                0
            ],
            "name" : "u_face",
            "pbrMetallicRoughness" : {
                "baseColorTexture" : {
                    "index" : 0,
                    "texCoord" : 0
                },
                "metallicFactor" : 0,
                "roughnessFactor" : 0.5
            }
        },
        {
            "doubleSided" : true,
            "emissiveFactor" : [
                0,
                0,
                0
            ],
            "name" : "Material.005",
            "pbrMetallicRoughness" : {
                "baseColorFactor" : [
                    1,
                    1,
                    1,
                    1
                ],
                "metallicFactor" : 0,
                "roughnessFactor" : 0.5
            }
        },
        {
            "doubleSided" : true,
            "emissiveFactor" : [
                0,
                0,
                0
            ],
            "name" : "Material.001",
            "pbrMetallicRoughness" : {
                "baseColorTexture" : {
                    "index" : 1,
                    "texCoord" : 0
                },
                "metallicFactor" : 0,
                "roughnessFactor" : 0.5
            }
        },
        {
            "doubleSided" : true,
            "emissiveFactor" : [
                0,
                0,
                0
            ],
            "name" : "s_suzu",
            "pbrMetallicRoughness" : {
                "baseColorFactor" : [
                    0.8000000715255737,
                    0.7365975975990295,
                    0,
                    1
                ],
                "metallicFactor" : 0,
                "roughnessFactor" : 0.5
            }
        },
        {
            "doubleSided" : true,
            "emissiveFactor" : [
                0,
                0,
                0
            ],
            "name" : "s_collar",
            "pbrMetallicRoughness" : {
                "baseColorFactor" : [
                    0.8000000715255737,
                    0,
                    0.005231351125985384,
                    1
                ],
                "metallicFactor" : 0,
                "roughnessFactor" : 0.5
            }
        },
        {
            "doubleSided" : true,
            "emissiveFactor" : [
                0,
                0,
                0
            ],
            "name" : "Material.003",
            "pbrMetallicRoughness" : {
                "baseColorTexture" : {
                    "index" : 2,
                    "texCoord" : 0
                },
                "metallicFactor" : 0,
                "roughnessFactor" : 0.5
            }
        },
        {
            "doubleSided" : true,
            "emissiveFactor" : [
                0,
                0,
                0
            ],
            "name" : "Material.004",
            "pbrMetallicRoughness" : {
                "baseColorTexture" : {
                    "index" : 3,
                    "texCoord" : 0
                },
                "metallicFactor" : 0,
                "roughnessFactor" : 0.5
            }
        },
        {
            "doubleSided" : true,
            "emissiveFactor" : [
                0,
                0,
                0
            ],
            "name" : "s_Alldoby",
            "pbrMetallicRoughness" : {
                "baseColorFactor" : [
                    0.800000011920929,
                    0.800000011920929,
                    0.800000011920929,
                    1
                ],
                "metallicFactor" : 0,
                "roughnessFactor" : 0.5
            }
        }
    ],
    "meshes" : [
        {
            "name" : "Sphere",
            "primitives" : [
                {
                    "attributes" : {
                        "POSITION" : 0,
                        "NORMAL" : 1,
                        "TEXCOORD_0" : 2
                    },
                    "indices" : 3,
                    "material" : 0
                }
            ]
        },
        {
            "name" : "Plane.005",
            "primitives" : [
                {
                    "attributes" : {
                        "POSITION" : 4,
                        "NORMAL" : 5,
                        "TEXCOORD_0" : 6
                    },
                    "indices" : 7,
                    "material" : 1
                }
            ]
        },
        {
            "name" : "Sphere.001",
            "primitives" : [
                {
                    "attributes" : {
                        "POSITION" : 8,
                        "NORMAL" : 9,
                        "TEXCOORD_0" : 10
                    },
                    "indices" : 11,
                    "material" : 2
                }
            ]
        },
        {
            "name" : "Sphere.002",
            "primitives" : [
                {
                    "attributes" : {
                        "POSITION" : 12,
                        "NORMAL" : 13,
                        "TEXCOORD_0" : 14
                    },
                    "indices" : 15,
                    "material" : 3
                }
            ]
        },
        {
            "name" : "Cylinder",
            "primitives" : [
                {
                    "attributes" : {
                        "POSITION" : 16,
                        "NORMAL" : 17,
                        "TEXCOORD_0" : 18
                    },
                    "indices" : 19,
                    "material" : 4
                }
            ]
        },
        {
            "name" : "Sphere.004",
            "primitives" : [
                {
                    "attributes" : {
                        "POSITION" : 20,
                        "NORMAL" : 21,
                        "TEXCOORD_0" : 22
                    },
                    "indices" : 23,
                    "material" : 5
                }
            ]
        },
        {
            "name" : "Sphere.006",
            "primitives" : [
                {
                    "attributes" : {
                        "POSITION" : 24,
                        "NORMAL" : 25,
                        "TEXCOORD_0" : 26
                    },
                    "indices" : 27,
                    "material" : 6
                }
            ]
        },
        {
            "name" : "Sphere.007",
            "primitives" : [
                {
                    "attributes" : {
                        "POSITION" : 28,
                        "NORMAL" : 29,
                        "TEXCOORD_0" : 30
                    },
                    "indices" : 31,
                    "material" : 7
                }
            ]
        }
    ],
    "textures" : [
        {
            "source" : 0
        },
        {
            "source" : 1
        },
        {
            "source" : 2
        },
        {
            "source" : 3
        }
    ],
    "images" : [
        {
            "bufferView" : 4,
            "mimeType" : "image/png",
            "name" : "u_face3"
        },
        {
            "bufferView" : 13,
            "mimeType" : "image/png",
            "name" : "u_body2"
        },
        {
            "bufferView" : 26,
            "mimeType" : "image/png",
            "name" : "u_fhand"
        },
        {
            "bufferView" : 31,
            "mimeType" : "image/png",
            "name" : "u_lhand"
        }
    ],
    "accessors" : [
        {
            "bufferView" : 0,
            "componentType" : 5126,
            "count" : 523,
            "max" : [
                1.0352693796157837,
                0.9872000217437744,
                1.0344021320343018
            ],
            "min" : [
                -1.0352693796157837,
                -0.9866657257080078,
                -1.03465735912323
            ],
            "type" : "VEC3"
        },
        {
            "bufferView" : 1,
            "componentType" : 5126,
            "count" : 523,
            "type" : "VEC3"
        },
        {
            "bufferView" : 2,
            "componentType" : 5126,
            "count" : 523,
            "type" : "VEC2"
        },
        {
            "bufferView" : 3,
            "componentType" : 5123,
            "count" : 2760,
            "type" : "SCALAR"
        },
        {
            "bufferView" : 5,
            "componentType" : 5126,
            "count" : 90,
            "max" : [
                2.2186994552612305,
                2.8760812282562256,
                0.20704501867294312
            ],
            "min" : [
                -2.2186994552612305,
                1.1299716234207153,
                -0.6581571102142334
            ],
            "type" : "VEC3"
        },
        {
            "bufferView" : 6,
            "componentType" : 5126,
            "count" : 90,
            "type" : "VEC3"
        },
        {
            "bufferView" : 7,
            "componentType" : 5126,
            "count" : 90,
            "type" : "VEC2"
        },
        {
            "bufferView" : 8,
            "componentType" : 5123,
            "count" : 384,
            "type" : "SCALAR"
        },
        {
            "bufferView" : 9,
            "componentType" : 5126,
            "count" : 589,
            "max" : [
                1.000000238418579,
                0.9181780815124512,
                1.0000005960464478
            ],
            "min" : [
                -0.9999998211860657,
                -0.9181780219078064,
                -1.000000238418579
            ],
            "type" : "VEC3"
        },
        {
            "bufferView" : 10,
            "componentType" : 5126,
            "count" : 589,
            "type" : "VEC3"
        },
        {
            "bufferView" : 11,
            "componentType" : 5126,
            "count" : 589,
            "type" : "VEC2"
        },
        {
            "bufferView" : 12,
            "componentType" : 5123,
            "count" : 2880,
            "type" : "SCALAR"
        },
        {
            "bufferView" : 14,
            "componentType" : 5126,
            "count" : 559,
            "max" : [
                1.000000238418579,
                1,
                1.0000003576278687
            ],
            "min" : [
                -0.9999998211860657,
                -1,
                -1
            ],
            "type" : "VEC3"
        },
        {
            "bufferView" : 15,
            "componentType" : 5126,
            "count" : 559,
            "type" : "VEC3"
        },
        {
            "bufferView" : 16,
            "componentType" : 5126,
            "count" : 559,
            "type" : "VEC2"
        },
        {
            "bufferView" : 17,
            "componentType" : 5123,
            "count" : 2880,
            "type" : "SCALAR"
        },
        {
            "bufferView" : 18,
            "componentType" : 5126,
            "count" : 192,
            "max" : [
                1,
                1,
                1
            ],
            "min" : [
                -1,
                -1,
                -1
            ],
            "type" : "VEC3"
        },
        {
            "bufferView" : 19,
            "componentType" : 5126,
            "count" : 192,
            "type" : "VEC3"
        },
        {
            "bufferView" : 20,
            "componentType" : 5126,
            "count" : 192,
            "type" : "VEC2"
        },
        {
            "bufferView" : 21,
            "componentType" : 5123,
            "count" : 372,
            "type" : "SCALAR"
        },
        {
            "bufferView" : 22,
            "componentType" : 5126,
            "count" : 1188,
            "max" : [
                2.6215295791625977,
                -1.6419880390167236,
                -1.8697762489318848
            ],
            "min" : [
                -2.6215295791625977,
                -3.2184078693389893,
                -3.161748170852661
            ],
            "type" : "VEC3"
        },
        {
            "bufferView" : 23,
            "componentType" : 5126,
            "count" : 1188,
            "type" : "VEC3"
        },
        {
            "bufferView" : 24,
            "componentType" : 5126,
            "count" : 1188,
            "type" : "VEC2"
        },
        {
            "bufferView" : 25,
            "componentType" : 5123,
            "count" : 5760,
            "type" : "SCALAR"
        },
        {
            "bufferView" : 27,
            "componentType" : 5126,
            "count" : 1119,
            "max" : [
                2.6027719974517822,
                -1.6507117748260498,
                -4.303523063659668
            ],
            "min" : [
                -2.6027719974517822,
                -3.201566696166992,
                -5.5395026206970215
            ],
            "type" : "VEC3"
        },
        {
            "bufferView" : 28,
            "componentType" : 5126,
            "count" : 1119,
            "type" : "VEC3"
        },
        {
            "bufferView" : 29,
            "componentType" : 5126,
            "count" : 1119,
            "type" : "VEC2"
        },
        {
            "bufferView" : 30,
            "componentType" : 5123,
            "count" : 5760,
            "type" : "SCALAR"
        },
        {
            "bufferView" : 32,
            "componentType" : 5126,
            "count" : 559,
            "max" : [
                1.000000238418579,
                1,
                1.0000003576278687
            ],
            "min" : [
                -0.9999998211860657,
                -1,
                -1
            ],
            "type" : "VEC3"
        },
        {
            "bufferView" : 33,
            "componentType" : 5126,
            "count" : 559,
            "type" : "VEC3"
        },
        {
            "bufferView" : 34,
            "componentType" : 5126,
            "count" : 559,
            "type" : "VEC2"
        },
        {
            "bufferView" : 35,
            "componentType" : 5123,
            "count" : 2880,
            "type" : "SCALAR"
        }
    ],
    "bufferViews" : [
        {
            "buffer" : 0,
            "byteLength" : 6276,
            "byteOffset" : 0
        },
        {
            "buffer" : 0,
            "byteLength" : 6276,
            "byteOffset" : 6276
        },
        {
            "buffer" : 0,
            "byteLength" : 4184,
            "byteOffset" : 12552
        },
        {
            "buffer" : 0,
            "byteLength" : 5520,
            "byteOffset" : 16736
        },
        {
            "buffer" : 0,
            "byteLength" : 50332,
            "byteOffset" : 22256
        },
        {
            "buffer" : 0,
            "byteLength" : 1080,
            "byteOffset" : 72588
        },
        {
            "buffer" : 0,
            "byteLength" : 1080,
            "byteOffset" : 73668
        },
        {
            "buffer" : 0,
            "byteLength" : 720,
            "byteOffset" : 74748
        },
        {
            "buffer" : 0,
            "byteLength" : 768,
            "byteOffset" : 75468
        },
        {
            "buffer" : 0,
            "byteLength" : 7068,
            "byteOffset" : 76236
        },
        {
            "buffer" : 0,
            "byteLength" : 7068,
            "byteOffset" : 83304
        },
        {
            "buffer" : 0,
            "byteLength" : 4712,
            "byteOffset" : 90372
        },
        {
            "buffer" : 0,
            "byteLength" : 5760,
            "byteOffset" : 95084
        },
        {
            "buffer" : 0,
            "byteLength" : 22876,
            "byteOffset" : 100844
        },
        {
            "buffer" : 0,
            "byteLength" : 6708,
            "byteOffset" : 123720
        },
        {
            "buffer" : 0,
            "byteLength" : 6708,
            "byteOffset" : 130428
        },
        {
            "buffer" : 0,
            "byteLength" : 4472,
            "byteOffset" : 137136
        },
        {
            "buffer" : 0,
            "byteLength" : 5760,
            "byteOffset" : 141608
        },
        {
            "buffer" : 0,
            "byteLength" : 2304,
            "byteOffset" : 147368
        },
        {
            "buffer" : 0,
            "byteLength" : 2304,
            "byteOffset" : 149672
        },
        {
            "buffer" : 0,
            "byteLength" : 1536,
            "byteOffset" : 151976
        },
        {
            "buffer" : 0,
            "byteLength" : 744,
            "byteOffset" : 153512
        },
        {
            "buffer" : 0,
            "byteLength" : 14256,
            "byteOffset" : 154256
        },
        {
            "buffer" : 0,
            "byteLength" : 14256,
            "byteOffset" : 168512
        },
        {
            "buffer" : 0,
            "byteLength" : 9504,
            "byteOffset" : 182768
        },
        {
            "buffer" : 0,
            "byteLength" : 11520,
            "byteOffset" : 192272
        },
        {
            "buffer" : 0,
            "byteLength" : 14577,
            "byteOffset" : 203792
        },
        {
            "buffer" : 0,
            "byteLength" : 13428,
            "byteOffset" : 218372
        },
        {
            "buffer" : 0,
            "byteLength" : 13428,
            "byteOffset" : 231800
        },
        {
            "buffer" : 0,
            "byteLength" : 8952,
            "byteOffset" : 245228
        },
        {
            "buffer" : 0,
            "byteLength" : 11520,
            "byteOffset" : 254180
        },
        {
            "buffer" : 0,
            "byteLength" : 21458,
            "byteOffset" : 265700
        },
        {
            "buffer" : 0,
            "byteLength" : 6708,
            "byteOffset" : 287160
        },
        {
            "buffer" : 0,
            "byteLength" : 6708,
            "byteOffset" : 293868
        },
        {
            "buffer" : 0,
            "byteLength" : 4472,
            "byteOffset" : 300576
        },
        {
            "buffer" : 0,
            "byteLength" : 5760,
            "byteOffset" : 305048
        }
    ],
    "buffers" : [
        {
            "byteLength" : 310808,
            "uri" : "data:application/octet-stream;base64,"
        }
    ]
}
